<?xml version="1.0" encoding="UTF-8"?>
<svg id="Layer_1" xmlns="http://www.w3.org/2000/svg" version="1.1" viewBox="0 0 60 60">
  <!-- Generator: Adobe Illustrator 29.3.1, SVG Export Plug-In . SVG Version: 2.1.0 Build 151)  -->
  <defs>
    <style>
      .st0 {
        fill: #fff;
      }
    </style>
  </defs>
  <path class="st0" d="M52.6,20.8c-1.3-1.6-2.7-3.1-4.1-4.8-1.5-1.7-2.9-3.4-4.4-5.1-.5-.7-1.2-1.3-1.9-1.8-.4-.3-1.4-.3-1.7,0-.2.3-.3.5-.4.9s0,.6,0,.9c.4.8.9,1.4,1.4,2.1.2.2.2.3.3.4,1.6,2.2,3.4,4.4,5.1,6.5,2,2.6,4,5.1,5.9,7.6.2.2.3.5.4.7,0,0,0,.2,0,.2-1.1,0-2.2,0-3.2-.2-2.7-.2-5.1-.3-7.6-.3-5.3-.2-13.1-.4-20.6-.6-6.5-.2-12.6-.3-17.1-.5-.9,0-1.7,0-2.7.2-1.3.2-2,.9-2,2-.2,1.6.6,2.3,2,2.5h0c.3,0,.8,0,1.1.2,1.6.2,3.1.3,4.8.3,6.2,0,15.2.2,23.8.2,6.7,0,12.9,0,17.9.2.3,0,.7,0,1,0h.2c0,.3-.2.3-.3.4-.3.3-.6.7-.9,1-4.2,4.2-7.6,9.1-10.3,14.4v.2c-.3.5-.6,1-.7,1.5,0,.3,0,.6,0,.9,0,.2,0,.2,0,.3v.2h.2c.2,0,.3-.2.4-.2.3,0,.7,0,1-.3.3-.3.6-.7.9-1,.2-.3.4-.5.6-.8,1.9-1.9,3.8-3.9,5.8-5.8,2.5-2.5,4.9-5.1,7.5-7.6,1.1-1,2.1-2.3,3-3.5,1.2-1.9,1-3.6-.6-5.4-1.6-1.7-3.4-3.7-5.1-5.8Z"/>
</svg>
